#!OML:ASF E:\acrobat2\Project_11_07_03\Capture day 1\Session 1\Acrobat.ASF
:FULLY-SPECIFIED
:DEGREES
520
root 10.8426 18.0402 -1.78435 3.04761 2.9799 -5.11109
lowerback -3.86907 2.38768 6.74473
upperback 0.65462 2.86625 -0.435708
thorax 3.20715 1.55369 -4.03588
lowerneck 1.33239 -3.242 -1.05627
upperneck 5.95149 -4.38583 1.34576
head 1.67677 -2.18412 0.545611
rclavicle 9.88954e-015 -3.97569e-015
rhumerus -29.049 4.93826 -81.5624
rradius 42.0157
rwrist 0.790537
rhand -1.38385 -44.3677
rfingers 7.12502
rthumb 24.2642 -72.8523
lclavicle 9.88954e-015 -3.97569e-015
lhumerus -33.6052 -4.51311 81.544
lradius 20.0619
lwrist 9.69015
lhand -13.7892 -9.71798
lfingers 7.12502
lthumb 12.3323 19.8983
rfemur 7.25383 3.73357 30.5033
rtibia 3.95994
rfoot -19.747 -9.9809
rtoes 5.38895
lfemur -28.5529 5.33441 -10.1569
ltibia 34.0271
lfoot -5.54252 -2.63574
ltoes 23.2103
521
root 10.852 18.0172 -1.61572 3.16282 2.73396 -5.14459
lowerback -4.00572 2.47743 6.83292
upperback 0.613335 2.97427 -0.496743
thorax 3.26256 1.61032 -4.13565
lowerneck 1.31331 -3.20773 -1.05574
upperneck 6.03631 -4.32616 1.05122
head 1.69843 -2.15925 0.45377
rclavicle -1.80397e-014 -1.59028e-014
rhumerus -28.8341 5.04836 -81.3454
rradius 42.5135
rwrist 0.731332
rhand -1.49239 -44.2594
rfingers 7.12502
rthumb 24.1602 -72.7578
lclavicle -1.80397e-014 -1.59028e-014
lhumerus -33.7808 -3.73423 81.1629
lradius 19.4863
lwrist 9.30564
lhand -13.6149 -9.71804
lfingers 7.12502
lthumb 12.5005 19.8881
rfemur 7.80997 3.77745 30.5588
rtibia 3.84394
rfoot -20.0685 -9.78848
rtoes 4.841
lfemur -28.4881 5.29845 -10.2424
ltibia 31.1468
lfoot -5.94617 -2.14409
ltoes 22.8213
522
root 10.8621 17.9925 -1.44576 3.27501 2.49221 -5.19158
lowerback -4.13913 2.57237 6.93534
upperback 0.571777 3.08861 -0.559962
thorax 3.31813 1.6704 -4.2449
lowerneck 1.27256 -3.18279 -1.02341
upperneck 6.12953 -4.27803 0.746328
head 1.72596 -2.13975 0.352941
rclavicle -1.92821e-014 -2.46493e-014
rhumerus -28.6654 5.12602 -81.1349
rradius 43.0195
rwrist 0.692751
rhand -1.58264 -44.1777
rfingers 7.12502
rthumb 24.0736 -72.6876
lclavicle -1.92821e-014 -2.46493e-014
lhumerus -33.9688 -3.0482 80.8097
lradius 18.9295
lwrist 8.88879
lhand -13.394 -9.71209
lfingers 7.12502
lthumb 12.7134 19.8809
rfemur 8.3701 3.8001 30.6139
rtibia 3.72704
rfoot -20.3708 -9.58046
rtoes 4.33633
lfemur -28.3729 5.263 -10.3179
ltibia 28.2573
lfoot -6.457 -1.63723
ltoes 22.5445
523
root 10.8734 17.9664 -1.27405 3.38639 2.24992 -5.26713
lowerback -4.27756 2.67599 7.07269
upperback 0.526942 3.21216 -0.623247
thorax 3.37698 1.73574 -4.37246
lowerneck 1.22968 -3.16204 -0.96426
upperneck 6.22308 -4.2351 0.441359
head 1.75374 -2.12248 0.247587
rclavicle 5.31749e-015 5.96354e-015
rhumerus -28.5373 5.17917 -80.9361
rradius 43.5178
rwrist 0.660354
rhand -1.67442 -44.1327
rfingers 7.12502
rthumb 23.9856 -72.6543
lclavicle 5.31749e-015 5.96354e-015
lhumerus -34.1752 -2.44767 80.4853
lradius 18.3947
lwrist 8.42017
lhand -13.1413 -9.66603
lfingers 7.12502
lthumb 12.957 19.9117
rfemur 8.92739 3.77961 30.6775
rtibia 3.62542
rfoot -20.6522 -9.32298
rtoes 3.93133
lfemur -28.2138 5.24008 -10.3718
ltibia 25.3834
lfoot -7.07102 -1.12673
ltoes 22.3077
524
root 10.8857 17.9391 -1.10034 3.49794 1.99476 -5.36883
lowerback -4.425 2.78458 7.23599
upperback 0.480393 3.33977 -0.681611
thorax 3.44176 1.80369 -4.50824
lowerneck 1.19687 -3.13793 -0.895695
upperneck 6.30372 -4.18771 0.142697
head 1.77592 -2.10287 0.142996
rclavicle 1.61513e-014 -2.78299e-015
rhumerus -28.434 5.24299 -80.7505
rradius 43.9921
rwrist 0.618741
rhand -1.77808 -44.1167
rfingers 7.12502
rthumb 23.8862 -72.6513
lclavicle 1.61513e-014 -2.78299e-015
lhumerus -34.4131 -1.914 80.1924
lradius 17.8965
lwrist 7.90655
lhand -12.8828 -9.57245
lfingers 7.12502
lthumb 13.2061 19.9893
rfemur 9.47654 3.7276 30.7472
rtibia 3.55723
rfoot -20.916 -9.01028
rtoes 3.63131
lfemur -28.0109 5.24717 -10.4069
ltibia 22.5469
lfoot -7.76213 -0.639202
ltoes 22.2025
525
root 10.8988 17.9107 -0.92499 3.61091 1.71698 -5.49114
lowerback -4.57942 2.8912 7.4122
upperback 0.439305 3.46247 -0.728485
thorax 3.5165 1.86983 -4.63868
lowerneck 1.15229 -3.10341 -0.835853
upperneck 6.36392 -4.12639 -0.148115
head 1.7943 -2.07651 0.0424522
rclavicle 3.6477e-014 -1.39149e-014
rhumerus -28.3357 5.36327 -80.5762
rradius 44.4354
rwrist 0.539789
rhand -1.9138 -44.1088
rfingers 7.12502
rthumb 23.7561 -72.6604
lclavicle 3.6477e-014 -1.39149e-014
lhumerus -34.6822 -1.42973 79.9404
lradius 17.4582
lwrist 7.36634
lhand -12.6348 -9.42258
lfingers 7.12502
lthumb 13.4452 20.1235
rfemur 10.008 3.66753 30.8216
rtibia 3.53506
rfoot -21.1583 -8.65666
rtoes 3.41792
lfemur -27.7673 5.28252 -10.4202
ltibia 19.7634
lfoot -8.51043 -0.205647
ltoes 22.3185
526
root 10.9121 17.8813 -0.748436 3.72621 1.41762 -5.63617
lowerback -4.73965 2.99336 7.59902
upperback 0.408439 3.57674 -0.760881
thorax 3.60466 1.93263 -4.7596
lowerneck 1.09167 -3.05586 -0.801802
upperneck 6.39338 -4.04872 -0.411064
head 1.80718 -2.04216 -0.0449701
rclavicle 1.65488e-014 2.14687e-014
rhumerus -28.2373 5.54248 -80.4083
rradius 44.8531
rwrist 0.423131
rhand -2.05813 -44.1105
rfingers 7.12502
rthumb 23.6176 -72.68
lclavicle 1.65488e-014 2.14687e-014
lhumerus -34.954 -0.942339 79.7095
lradius 17.0628
lwrist 6.79268
lhand -12.3763 -9.24642
lfingers 7.12502
lthumb 13.6943 20.283
rfemur 10.5121 3.62627 30.9126
rtibia 3.56954
rfoot -21.3811 -8.28939
rtoes 3.26277
lfemur -27.4893 5.3251 -10.3932
ltibia 17.0431
lfoot -9.28201 0.146111
ltoes 22.7099
527
root 10.9252 17.8509 -0.571206 3.84182 1.10809 -5.79864
lowerback -4.89273 3.08661 7.78305
upperback 0.380633 3.67873 -0.779806
thorax 3.68994 1.98917 -4.86575
lowerneck 1.03871 -3.0007 -0.81062
upperneck 6.39148 -3.96354 -0.619727
head 1.81114 -2.00402 -0.107927
rclavicle -3.65267e-014 -2.50469e-014
rhumerus -28.1577 5.75619 -80.2475
rradius 45.2494
rwrist 0.300317
rhand -2.18902 -44.1082
rfingers 7.12502
rthumb 23.4921 -72.6939
lclavicle -3.65267e-014 -2.50469e-014
lhumerus -35.2324 -0.429293 79.4813
lradius 16.7031
lwrist 6.20153
lhand -12.0884 -9.08231
lfingers 7.12502
lthumb 13.9718 20.4282
rfemur 10.9868 3.63153 31.0281
rtibia 3.66851
rfoot -21.6021 -7.93828
rtoes 3.22989
lfemur -27.1827 5.32855 -10.3125
ltibia 14.4036
lfoot -10.0554 0.446898
ltoes 23.3496
528
root 10.9381 17.8201 -0.393561 3.95205 0.805976 -5.96759
lowerback -5.02446 3.17234 7.95918
upperback 0.347434 3.77258 -0.796623
thorax 3.7563 2.04073 -4.96688
lowerneck 1.00548 -2.9464 -0.843973
upperneck 6.37148 -3.88198 -0.78335
head 1.80756 -1.96731 -0.152369
rclavicle -2.33572e-014 -2.3059e-014
rhumerus -28.1201 5.95846 -80.1006
rradius 45.6236
rwrist 0.190673
rhand -2.29446 -44.0891
rfingers 7.12502
rthumb 23.3909 -72.6876
lclavicle -2.33572e-014 -2.3059e-014
lhumerus -35.5345 0.0552808 79.2573
lradius 16.3947
lwrist 5.64243
lhand -11.7565 -8.93704
lfingers 7.12502
lthumb 14.2916 20.5511
rfemur 11.4454 3.67559 31.1593
rtibia 3.81939
rfoot -21.8195 -7.60966
rtoes 3.38954
lfemur -26.8496 5.23078 -10.1755
ltibia 11.8697
lfoot -10.7817 0.740415
ltoes 24.0388
529
root 10.9509 17.7889 -0.215272 4.05498 0.516803 -6.14179
lowerback -5.13342 3.25714 8.1378
upperback 0.305735 3.86727 -0.822174
thorax 3.80241 2.09192 -5.07956
lowerneck 0.99976 -2.89867 -0.866825
upperneck 6.32872 -3.81076 -0.92821
head 1.79216 -1.935 -0.19212
rclavicle -7.20594e-015 7.95139e-015
rhumerus -28.1362 6.10332 -79.9753
rradius 45.9784
rwrist 0.107903
rhand -2.3505 -44.0704
rfingers 7.12502
rthumb 23.3372 -72.6757
lclavicle -7.20594e-015 7.95139e-015
lhumerus -35.8527 0.496518 79.0224
lradius 16.1258
lwrist 5.1275
lhand -11.3574 -8.82042
lfingers 7.12502
lthumb 14.6762 20.6402
rfemur 11.8961 3.7262 31.2974
rtibia 4.01268
rfoot -22.0174 -7.29552
rtoes 3.62856
lfemur -26.4998 4.99169 -9.97276
ltibia 9.47091
lfoot -11.4291 1.08247
ltoes 24.5852
